<svg width="64" height="64" viewBox="0 0 64 64" fill="none" xmlns="http://www.w3.org/2000/svg">
  <path d="M32 18C32 18 36 14 42 14C48 14 52 18 52 24C52 32 44 38 32 46C20 38 12 32 12 24C12 18 16 14 22 14C28 14 32 18 32 18Z" stroke="#4CAF50" stroke-width="2" stroke-linecap="round" stroke-linejoin="round"/>
  <path d="M36 38C39.5 34.5 46 30 46 24" stroke="#4CAF50" stroke-width="2" stroke-linecap="round" stroke-linejoin="round"/>
  <path d="M34 28C34 28 36 26 38 26C40 26 42 28 42 30C42 33 38 35 34 38C30 35 26 33 26 30C26 28 28 26 30 26C32 26 34 28 34 28Z" stroke="#4CAF50" stroke-width="2" stroke-linecap="round" stroke-linejoin="round"/>
  <path d="M20 42C20 42 24 46 32 46C40 46 44 42 44 42" stroke="#4CAF50" stroke-width="2" stroke-linecap="round" stroke-linejoin="round"/>
</svg> 