<svg width="40" height="40" viewBox="0 0 40 40" fill="none" xmlns="http://www.w3.org/2000/svg">
  <circle cx="20" cy="20" r="20" fill="#4CAF50"/>
  <path d="M28 20C28 24.4183 24.4183 28 20 28C15.5817 28 12 24.4183 12 20C12 15.5817 15.5817 12 20 12C24.4183 12 28 15.5817 28 20Z" fill="white"/>
  <path d="M20 12C16.5 12 13.3 13.8 11.6 16.5C11.2 17.1 11 17.8 11 18.5C11 20.4 12.6 22 14.5 22C15.5 22 16.4 21.6 17 20.9C17.6 21.6 18.5 22 19.5 22C20.5 22 21.4 21.6 22 20.9C22.6 21.6 23.5 22 24.5 22C26.4 22 28 20.4 28 18.5C28 17.8 27.8 17.1 27.4 16.5C25.7 13.8 22.5 12 20 12Z" fill="#4CAF50"/>
</svg> 